<svg width="74" height="75" viewBox="0 0 74 75" fill="none" xmlns="http://www.w3.org/2000/svg">
<g clip-path="url(#clip0_107_2127)">
<path d="M55.7669 55.493C56.0726 54.7556 55.7227 53.91 54.9853 53.6043C54.248 53.2986 53.4024 53.6485 53.0967 54.3858C52.7909 55.1232 53.1408 55.9688 53.8782 56.2745C54.6155 56.5802 55.4611 56.2303 55.7669 55.493Z" fill="white"/>
<path d="M55.1436 44.4022H53.0282V42.006H54.4809C55.2806 42.006 55.9291 41.3577 55.9291 40.5578C55.9291 39.758 55.2807 39.1096 54.4809 39.1096H48.6793C47.8796 39.1096 47.2311 39.758 47.2311 40.5578C47.2311 41.3577 47.8794 42.006 48.6793 42.006H50.1319V44.4022H48.0166C39.0263 44.4022 31.712 51.7164 31.712 60.7069V60.7301C31.712 61.5297 32.3604 62.1783 33.1602 62.1783H40.7637V65.0836H36.3461C33.791 65.0836 31.7122 67.1624 31.7122 69.7276C31.7122 72.2827 33.791 74.3615 36.3461 74.3615H66.8142C69.3693 74.3615 71.4481 72.2826 71.4481 69.7176C71.4481 67.1624 69.3693 65.0836 66.8142 65.0836H62.3964V62.1783H70.0001C70.7998 62.1783 71.4483 61.5299 71.4483 60.7301V60.7069C71.4483 51.7164 64.1341 44.4022 55.1436 44.4022ZM68.552 69.7273C68.552 70.6855 67.7726 71.465 66.8143 71.465H36.3461C35.3879 71.465 34.6084 70.6855 34.6084 69.7173C34.6084 68.7591 35.388 67.9796 36.3461 67.9796H66.8142C67.7726 67.9796 68.552 68.7591 68.552 69.7273ZM59.5002 65.0833H43.6601V62.178H59.5002V65.0833ZM34.6836 59.2817C35.3976 52.5559 41.1048 47.2983 48.0167 47.2983H55.1437C59.8777 47.2983 64.0457 49.7652 66.4322 53.4802H60.9484C60.1487 53.4802 59.5002 54.1286 59.5002 54.9284C59.5002 55.7281 60.1485 56.3766 60.9484 56.3766H67.832C68.1549 57.3179 68.3712 58.2924 68.4769 59.2819H34.6836V59.2817ZM29.4283 24.8506L31.8356 35.1174C32.0359 35.972 32.6236 36.7856 33.2718 37.3583C33.9848 37.9857 34.8622 38.3963 35.8007 38.5419C37.7945 38.8489 39.8308 37.8499 40.749 36.045C41.3111 34.9402 41.4028 33.6452 41.0205 32.4678L40.7472 31.4811L47.8531 35.7133C49.6021 36.849 51.9567 36.8646 53.5352 35.4166C54.8523 34.2083 55.3909 32.321 54.948 30.5962C54.7026 29.6402 54.1519 28.6795 53.3587 28.0729L32.8947 12.3046C32.7796 12.2158 32.6518 12.1449 32.5156 12.0943L1.95303 0.729346C1.73403 0.647847 1.49856 0.620564 1.26672 0.649826C1.03489 0.679087 0.813579 0.764025 0.621697 0.897385C0.429815 1.03075 0.273061 1.20856 0.164822 1.41566C0.0565828 1.62275 7.4165e-05 1.85297 0.000122101 2.08664L0.000122101 11.872C0.0141416 17.1027 3.04222 21.8925 7.73977 24.157L17.3478 34.3687C18.6487 35.7513 20.6705 36.3248 22.5042 35.8351C24.3282 35.3481 25.7731 33.8692 26.2258 32.0376C26.5176 30.8566 26.3808 29.5886 25.8471 28.4957L23.4935 23.677L29.4117 24.7597C29.4169 24.79 29.421 24.8204 29.4283 24.8506ZM38.2388 33.274C38.3865 33.8143 38.409 34.3352 38.1108 34.8347C37.8683 35.2411 37.4645 35.5268 37.0079 35.643C36.0338 35.8911 34.982 35.321 34.6381 34.3826L32.8555 26.7808L37.1645 29.3471L38.2388 33.274ZM19.633 22.3722L23.2447 29.7668C23.7596 30.8209 23.3861 32.1327 22.3951 32.7576C21.4663 33.3434 20.2098 33.1841 19.4571 32.384L9.65972 21.971C9.53092 21.8341 9.37673 21.7236 9.20575 21.6456C5.3842 19.9036 2.90766 16.0643 2.89638 11.8682V4.1702L31.3007 14.7325L51.5583 30.3419C52.3255 31.0192 52.406 32.1481 51.8393 32.9711C51.5712 33.3605 51.1879 33.6236 50.7079 33.6562C50.2098 33.69 49.7768 33.4891 49.3612 33.2404L30.7426 22.1512C30.5945 22.063 30.4318 22.0019 30.2622 21.9708L21.1949 20.312C20.0502 20.1038 19.1209 21.3242 19.633 22.3722ZM61.4541 29.8219C62.0824 30.3002 63.0058 30.1744 63.4836 29.5469L66.9268 25.0242C67.4111 24.3878 67.2881 23.4791 66.6517 22.9947C66.0149 22.5099 65.1067 22.6335 64.6222 23.2697L61.1791 27.7924C60.6946 28.4288 60.8177 29.3373 61.4541 29.8219ZM57.4965 27.1036H57.5014C58.299 27.1036 58.9468 26.4584 58.9495 25.6603L58.9709 19.2549C58.9736 18.4552 58.3274 17.8047 57.5276 17.802H57.5227C56.7252 17.802 56.0774 18.4471 56.0746 19.2452L56.0532 25.6506C56.0505 26.4504 56.6967 27.101 57.4965 27.1036ZM73.9462 30.5012C73.7307 29.7307 72.9315 29.2814 72.1615 29.4968L65.9931 31.2224C65.2543 31.4291 64.7965 32.2055 64.9744 32.952C65.1626 33.741 65.9918 34.23 66.7734 34.0114L72.9419 32.2859C73.7119 32.0705 74.1617 31.2715 73.9462 30.5012Z" fill="white"/>
</g>
<defs>
<clipPath id="clip0_107_2127">
<rect width="74" height="74" fill="white" transform="translate(0.00012207 0.5)"/>
</clipPath>
</defs>
</svg>
