<svg width="74" height="75" viewBox="0 0 74 75" fill="none" xmlns="http://www.w3.org/2000/svg">
<path d="M73.5218 47.7691C73.0271 47.4334 72.3522 47.563 72.0146 48.0567C71.9237 48.1898 69.74 51.3159 65.7298 51.3159C61.7195 51.3159 59.5359 48.1898 59.4472 48.0603C59.0477 47.4274 58.0429 47.4282 57.6439 48.0612C57.6221 48.0937 55.4135 51.316 51.3673 51.316C47.9759 51.316 45.8912 49.0807 45.2748 48.3123V31.482H72.9135C73.5134 31.482 73.9996 30.9958 73.9996 30.3959C73.9996 29.7959 73.5134 29.3097 72.9135 29.3097H64.1792V21.3937C64.1792 14.2123 58.406 8.31396 51.3098 8.2453C47.8186 8.21018 44.5264 9.54883 42.0406 12.0106C40.8371 13.2026 39.8979 14.5869 39.2465 16.0928C37.2388 11.5208 32.7238 8.29603 27.4879 8.2453C27.4448 8.24489 27.4017 8.2447 27.3587 8.24472C23.9152 8.24472 20.6737 9.57918 18.2185 12.0106C15.7323 14.473 14.3628 17.7514 14.3628 21.2418V29.3099H1.16801C0.568059 29.3099 0.0818555 29.7961 0.0818555 30.396C0.0818555 30.996 0.568059 31.4822 1.16801 31.4822H14.3628V35.7713C14.3628 36.3712 14.849 36.8574 15.449 36.8574C16.0489 36.8574 16.5351 36.3712 16.5351 35.7713V21.2418C16.5351 18.3355 17.6758 15.6053 19.7472 13.5539C21.8179 11.5033 24.5572 10.3829 27.4671 10.4175C33.3768 10.4746 38.1849 15.3986 38.1849 21.3937V29.3097H35.4395V21.2418C35.4395 16.8625 31.878 13.2386 27.5004 13.1636C27.4542 13.1628 27.4085 13.1624 27.3624 13.1624C25.2661 13.1624 23.2798 13.9823 21.7562 15.4801C20.1828 17.0267 19.2805 19.172 19.2805 21.3658V50.5166C17.8326 49.7895 16.9046 48.7629 16.535 48.2998V40.1156C16.535 39.5157 16.0488 39.0294 15.4489 39.0294C14.8489 39.0294 14.3627 39.5157 14.3627 40.1156V48.3108C13.7441 49.0822 11.6597 51.3159 8.26955 51.3159C4.25924 51.3159 2.07566 48.1898 1.98692 48.0603C1.8248 47.8246 1.57623 47.6624 1.2952 47.6089C1.01417 47.5554 0.723368 47.6149 0.485963 47.7745C0.248557 47.9341 0.0837151 48.181 0.0272387 48.4614C-0.0292377 48.7419 0.0272122 49.0333 0.184328 49.2724C0.299953 49.4445 3.07842 53.4882 8.26941 53.4882C11.8184 53.4882 14.2396 51.5983 15.4532 50.3475C16.6668 51.5983 19.0882 53.4882 22.637 53.4882C26.1851 53.4882 28.6035 51.5993 29.8161 50.3481C31.03 51.599 33.4511 53.4882 36.9992 53.4882C40.5481 53.4882 42.9693 51.5983 44.183 50.3475C45.3966 51.5983 47.8179 53.4882 51.3667 53.4882C54.9148 53.4882 57.3333 51.5993 58.5459 50.3481C59.7598 51.599 62.1809 53.4882 65.729 53.4882C70.9201 53.4882 73.6984 49.4445 73.814 49.2724C74.1485 48.7759 74.0168 48.1049 73.5218 47.7691ZM21.4528 39.0296H38.1849V42.0705H21.4528V39.0296ZM38.1849 36.8573H21.4528V31.482H38.1849V36.8573ZM23.2791 17.0293C24.4174 15.9104 25.9029 15.309 27.4632 15.3356C30.6637 15.3905 33.2674 18.04 33.2674 21.242V29.31H21.453V21.366C21.4528 19.7507 22.1185 18.1701 23.2791 17.0293ZM30.7171 48.0603C30.3181 47.4309 29.3182 47.4305 28.9163 48.0577C28.8255 48.1907 26.6468 51.3159 22.6374 51.3159C22.2225 51.3159 21.8283 51.2809 21.4528 51.2208V44.2427H38.1849V51.2207C37.793 51.2838 37.3966 51.3157 36.9996 51.3159C32.9895 51.3159 30.8057 48.1898 30.7171 48.0603ZM40.3571 50.5162V21.2418C40.3571 18.3355 41.4977 15.6053 43.5691 13.5539C45.6398 11.5033 48.3794 10.3829 51.2888 10.4175C57.1987 10.4746 62.0069 15.3986 62.0069 21.3937V29.3097H59.2615V26.8953C59.2615 26.2954 58.7753 25.8092 58.1753 25.8092C57.5754 25.8092 57.0892 26.2954 57.0892 26.8953V29.3097H45.2746V21.3657C45.2746 19.7506 45.9403 18.17 47.1009 17.029C48.2392 15.9101 49.722 15.3087 51.2849 15.3353C54.4854 15.3902 57.0892 18.0398 57.0892 21.2417V22.5509C57.0892 23.1508 57.5754 23.637 58.1753 23.637C58.7753 23.637 59.2615 23.1508 59.2615 22.5509V21.2417C59.2615 16.8624 55.6999 13.2384 51.3224 13.1634C51.2761 13.1627 51.2305 13.1623 51.1843 13.1623C49.0881 13.1623 47.1019 13.9822 45.5781 15.48C44.0049 17.0266 43.1025 19.1719 43.1025 21.3657V48.2984C42.7319 48.7633 41.8038 49.7895 40.3571 50.5162ZM29.8212 64.5834C25.8109 64.5834 23.6273 61.4574 23.5386 61.3279C23.1398 60.6987 22.1406 60.6982 21.7383 61.3244C21.6474 61.4575 19.4636 64.5836 15.4535 64.5836C11.4433 64.5836 9.25959 61.4575 9.17085 61.328C9.09127 61.2096 8.98916 61.1081 8.87034 61.0292C8.75152 60.9503 8.61832 60.8956 8.47835 60.8682C8.33838 60.8407 8.19438 60.8412 8.05457 60.8694C7.91476 60.8976 7.78189 60.9531 7.66353 61.0327C7.54517 61.1123 7.44364 61.2144 7.36474 61.3332C7.28584 61.452 7.23111 61.5852 7.20369 61.7252C7.17627 61.8651 7.17669 62.0091 7.20493 62.1489C7.23317 62.2887 7.28866 62.4216 7.36825 62.5399C7.48388 62.712 10.2622 66.7557 15.4533 66.7557C19.0023 66.7557 21.4235 64.8659 22.6371 63.6151C23.8507 64.8659 26.2721 66.7557 29.821 66.7557C30.421 66.7557 30.9072 66.2695 30.9072 65.6696C30.9072 65.0696 30.4211 64.5834 29.8212 64.5834ZM66.337 61.0361C65.8417 60.7009 65.1673 60.8313 64.83 61.3253C64.7392 61.4582 62.5607 64.5834 58.5511 64.5834C54.5408 64.5834 52.3572 61.4574 52.2685 61.3279C51.8693 60.6954 50.8651 60.6955 50.4659 61.3279C50.4439 61.3604 48.2301 64.5834 44.1833 64.5834C40.1729 64.5834 37.9894 61.4574 37.9006 61.3279C37.5016 60.6984 36.5017 60.698 36.0998 61.3253C36.0911 61.3378 35.2147 62.6058 33.5978 63.5495C33.4746 63.6214 33.3668 63.7169 33.2805 63.8304C33.1942 63.944 33.1311 64.0735 33.0949 64.2115C33.0586 64.3494 33.0499 64.4932 33.0692 64.6345C33.0885 64.7758 33.1354 64.912 33.2073 65.0352C33.2793 65.1584 33.3747 65.2662 33.4883 65.3525C33.6019 65.4388 33.7314 65.5018 33.8693 65.5381C34.0073 65.5744 34.151 65.5831 34.2924 65.5638C34.4337 65.5445 34.5699 65.4975 34.693 65.4256C35.6907 64.8432 36.4622 64.1662 36.9986 63.6141C38.2119 64.8648 40.6334 66.7557 44.1833 66.7557C47.7322 66.7557 50.1534 64.8659 51.367 63.6151C52.5807 64.8659 55.002 66.7557 58.5508 66.7557C63.7427 66.7557 66.5158 62.7112 66.6313 62.539C66.9649 62.042 66.8325 61.3712 66.337 61.0361Z" fill="white"/>
</svg>
