<svg width="74" height="75" viewBox="0 0 74 75" fill="none" xmlns="http://www.w3.org/2000/svg">
<g clip-path="url(#clip0_107_2140)">
<path d="M73.0026 31.5819H67.9294L67.929 27.0294C67.929 25.884 67.4829 24.8073 66.6729 23.9973C65.8628 23.1875 64.786 22.7415 63.6406 22.7416L59.7835 22.7419L59.7832 18.9359C59.7831 17.7906 59.337 16.7137 58.5271 15.9039C57.7172 15.094 56.6403 14.648 55.4948 14.6481L53.3075 14.6483C50.9431 14.6484 49.0195 16.5723 49.0197 18.9368L49.0206 31.5804L24.9797 31.578L24.9804 18.9369C24.9806 16.5725 23.0573 14.6488 20.693 14.6484L18.5059 14.6481H18.5053C17.36 14.6481 16.2833 15.0941 15.4734 15.9039C14.6633 16.7139 14.2172 17.7907 14.2172 18.9362L14.2169 22.7417H10.3595C7.9954 22.7417 6.07174 24.665 6.07144 27.0292L6.07107 31.5766H0.997446C0.446553 31.5766 0 32.0232 0 32.5741V42.4219C0 42.9727 0.446553 43.4193 0.997446 43.4193H6.07011L6.06974 47.9681C6.06955 49.1136 6.51555 50.1905 7.32548 51.0006C8.13541 51.8106 9.2123 52.2568 10.3578 52.2568H14.2147L14.2145 56.0634C14.2145 58.4275 16.1378 60.3511 18.5019 60.3514L20.6896 60.3518H20.6901C21.8353 60.3518 22.9121 59.9059 23.722 59.0962C24.532 58.2863 24.9782 57.2094 24.9783 56.0641L24.979 43.4208L49.0215 43.4232L49.0224 56.0638C49.0226 58.4283 50.9463 60.3517 53.3107 60.3516L55.4981 60.3515C57.8625 60.3513 59.786 58.4275 59.7859 56.063L59.7856 52.2571L63.6427 52.2568C64.7881 52.2566 65.865 51.8105 66.6748 51.0006C67.4847 50.1906 67.9306 49.1137 67.9305 47.9683L67.9302 43.4248H73.0026C73.5534 43.4248 74 42.9782 74 42.4273V32.5794C74 32.0286 73.5534 31.5819 73.0026 31.5819ZM1.99489 41.4245V33.5715H6.07089L6.07026 41.4245H1.99489ZM10.3578 50.2619C9.74525 50.2619 9.16934 50.0234 8.73618 49.59C8.30302 49.1568 8.06456 48.5809 8.06463 47.9683L8.06511 42.4298C8.06511 42.4271 8.06548 42.4245 8.06548 42.4219C8.06548 42.4192 8.06511 42.4166 8.06511 42.4139L8.06637 27.0295C8.06656 25.7653 9.09527 24.7367 10.3596 24.7367H14.2168L14.2149 50.2619L10.3578 50.2619ZM22.3115 57.6854C21.8784 58.1185 21.3026 58.3569 20.6902 58.3569H20.6899L18.5022 58.3565C17.2379 58.3564 16.2094 57.3277 16.2094 56.0634L16.2117 23.7463C16.2118 23.7439 16.2121 23.7417 16.2121 23.7393C16.2121 23.7369 16.2118 23.7346 16.2117 23.7323L16.2121 18.9363C16.2121 18.3237 16.4507 17.7478 16.8839 17.3147C17.3171 16.8816 17.8928 16.6431 18.5053 16.6431H18.5056L20.6927 16.6434H20.6928C21.9571 16.6436 22.9857 17.6724 22.9856 18.9367L22.9848 32.5695C22.9848 32.5714 22.9845 32.5733 22.9845 32.5753C22.9845 32.5772 22.9848 32.5791 22.9848 32.581L22.9834 56.0638C22.9833 56.6764 22.7448 57.2523 22.3115 57.6854ZM24.9791 41.4259L24.9796 33.5729L49.0208 33.5754L49.0213 41.4283L24.9791 41.4259ZM55.4979 58.3565L53.3105 58.3567C52.0461 58.3568 51.0173 57.3281 51.0172 56.0636L51.0146 18.9366C51.0145 17.6722 52.0431 16.6434 53.3076 16.6433L55.495 16.6431C56.1075 16.6431 56.6834 16.8815 57.1165 17.3146C57.5497 17.7478 57.7882 18.3236 57.7883 18.9363L57.7906 51.2592L57.7905 51.2598L57.7906 51.2603L57.7909 56.0632C57.791 57.3277 56.7624 58.3564 55.4979 58.3565ZM63.6426 50.2618L59.7854 50.2621L59.7837 24.7369L63.6408 24.7366C64.2534 24.7366 64.8292 24.975 65.2624 25.4081C65.6956 25.8412 65.9342 26.4171 65.9342 27.0296L65.9346 32.5778L65.9345 32.5794L65.9346 32.581L65.9357 47.9685C65.9357 49.2329 64.9071 50.2616 63.6426 50.2618ZM72.0051 41.4298H67.9301L67.9295 33.5768H72.0051V41.4298Z" fill="white"/>
</g>
<defs>
<clipPath id="clip0_107_2140">
<rect width="74" height="74" fill="white" transform="translate(0 0.5)"/>
</clipPath>
</defs>
</svg>
