<svg width="74" height="75" viewBox="0 0 74 75" fill="none" xmlns="http://www.w3.org/2000/svg">
<path d="M55.4974 6.27758V34.0281C55.194 34.0281 54.8936 34.0879 54.6134 34.2042C54.3331 34.3204 54.0786 34.4908 53.8642 34.7055C53.6499 34.9202 53.48 35.1751 53.3643 35.4556C53.2486 35.736 53.1894 36.0366 53.19 36.3399L53.1856 46.754H6.9405C4.35337 46.754 2.3125 48.8386 2.3125 51.382V62.9368C2.3125 65.4802 4.36211 67.5648 6.9405 67.5648H8.09423V71.0303C8.08986 71.6684 8.60991 72.1928 9.25232 72.1884H17.3502C17.9883 72.1884 18.5083 71.664 18.504 71.0303V67.5648H55.5018V71.0303C55.5018 71.6727 56.0218 72.1928 56.6642 72.1884H64.7534C64.9059 72.189 65.0569 72.1594 65.1979 72.1015C65.339 72.0436 65.4671 71.9584 65.5751 71.8508C65.6831 71.7432 65.7688 71.6153 65.8273 71.4745C65.8858 71.3337 65.9159 71.1828 65.9159 71.0303V67.5648H67.0696C69.6567 67.5648 71.6932 65.4802 71.6932 62.9368V51.382C71.6932 48.8386 69.6567 46.7497 67.0696 46.7497H64.7534V36.3443C64.7523 35.7327 64.5088 35.1465 64.0763 34.714C63.6438 34.2815 63.0576 34.038 62.446 34.0369L62.4416 6.28632C62.4416 5.36604 62.076 4.48345 61.4253 3.83272C60.7745 3.18198 59.892 2.81641 58.9717 2.81641C58.0514 2.81641 57.1688 3.18198 56.5181 3.83272C55.8674 4.48345 55.5018 5.36604 55.5018 6.28632L55.4974 6.27758ZM58.9717 5.12822C59.601 5.12822 60.1254 5.61768 60.1254 6.27758V34.0281H57.8136V6.27758C57.8136 5.62205 58.3424 5.12822 58.9717 5.12822ZM26.0906 15.8832C22.1566 15.8893 18.2631 16.6766 14.6359 18.1995C11.0086 19.7224 7.72002 21.9506 4.96082 24.7546C3.83332 25.8078 5.56827 27.5253 6.60837 26.376C9.1521 23.7918 12.1838 21.7388 15.5275 20.3359C18.8711 18.933 22.4602 18.2083 26.0862 18.2038C33.3931 18.2038 40.4029 21.1449 45.5728 26.376C46.6216 27.5297 48.3347 25.7991 47.2159 24.7546C44.4565 21.9525 41.1683 19.7258 37.542 18.2037C33.9157 16.6817 30.0234 15.89 26.0906 15.8832ZM26.0906 23.1595C23.1036 23.1619 20.1469 23.7577 17.3921 24.9123C14.6373 26.0669 12.1394 27.7572 10.0433 29.8852C8.8459 30.8991 10.7076 32.6734 11.6821 31.5022C13.5644 29.5917 15.8073 28.0741 18.2806 27.0374C20.754 26.0006 23.4087 25.4653 26.0906 25.4626C31.4921 25.4626 36.6707 27.6346 40.499 31.5065C41.5566 32.6253 43.2435 30.9603 42.1466 29.8852C40.0488 27.7568 37.5494 26.0659 34.7932 24.9106C32.0371 23.7553 29.079 23.163 26.0906 23.1595ZM26.0906 30.4227C21.9695 30.4227 18.032 32.0703 15.1215 35.0114C13.9983 36.0471 15.7071 37.7908 16.7603 36.6415C17.9799 35.4054 19.4329 34.4239 21.035 33.754C22.6371 33.0841 24.3563 32.7391 26.0928 32.7391C27.8292 32.7391 29.5484 33.0841 31.1505 33.754C32.7526 34.4239 34.2056 35.4054 35.4252 36.6415C36.5003 37.7777 38.1784 36.0821 37.0728 35.0114C35.6367 33.5582 33.9266 32.4043 32.0415 31.6166C30.1563 30.829 28.1336 30.4232 26.0906 30.4227ZM55.5018 36.3443H62.4372V46.754H55.4974L55.5018 36.3443ZM26.0862 37.6903C23.8705 37.6903 21.751 38.5775 20.1865 40.1551C19.0502 41.2564 20.7459 42.9345 21.834 41.7852C22.3892 41.2203 23.0514 40.7716 23.7818 40.4654C24.5122 40.1591 25.2963 40.0014 26.0884 40.0014C26.8804 40.0014 27.6645 40.1591 28.395 40.4654C29.1254 40.7716 29.7875 41.2203 30.3427 41.7852C31.4309 42.9214 33.1134 41.2476 31.9816 40.1551C31.21 39.3746 30.2913 38.7548 29.2786 38.3317C28.2659 37.9086 27.1837 37.6906 26.0862 37.6903ZM6.9405 49.0702H67.0652C68.3675 49.0702 69.3771 50.0972 69.3771 51.382V62.9368C69.3771 64.2391 68.3326 65.253 67.0609 65.253H6.94487C6.6399 65.2559 6.3374 65.198 6.05507 65.0826C5.77274 64.9672 5.51624 64.7967 5.30058 64.5811C5.08492 64.3654 4.91442 64.1089 4.79905 63.8266C4.68369 63.5442 4.62577 63.2417 4.62869 62.9368V51.382C4.62869 50.0972 5.64257 49.0659 6.94487 49.0659L6.9405 49.0702ZM12.7135 51.382C11.7944 51.382 10.9129 51.7472 10.263 52.3971C9.61307 53.047 9.24795 53.9285 9.24795 54.8476C9.24795 55.7667 9.61307 56.6482 10.263 57.2981C10.9129 57.948 11.7944 58.3131 12.7135 58.3131C13.1832 58.3367 13.6529 58.2646 14.0939 58.1011C14.5349 57.9376 14.938 57.6861 15.2788 57.362C15.6197 57.0379 15.891 56.6478 16.0765 56.2156C16.2619 55.7833 16.3575 55.3179 16.3575 54.8476C16.3575 54.3773 16.2619 53.9118 16.0765 53.4796C15.891 53.0474 15.6197 52.6573 15.2788 52.3332C14.938 52.0091 14.5349 51.7576 14.0939 51.5941C13.6529 51.4306 13.1832 51.3585 12.7135 51.382ZM21.9782 51.382C20.0291 51.382 18.4996 52.9422 18.4996 54.8432C18.4996 56.7442 20.051 58.3131 21.9782 58.3131C22.8974 58.3131 23.7788 57.948 24.4287 57.2981C25.0787 56.6482 25.4438 55.7667 25.4438 54.8476C25.4438 53.9285 25.0787 53.047 24.4287 52.3971C23.7788 51.7472 22.8974 51.382 21.9782 51.382ZM31.2255 51.382C30.7598 51.3644 30.2954 51.4407 29.8598 51.6064C29.4243 51.7722 29.0266 52.024 28.6905 52.3468C28.3544 52.6696 28.0867 53.0567 27.9035 53.4852C27.7203 53.9137 27.6252 54.3747 27.6241 54.8407C27.6229 55.3067 27.7156 55.7682 27.8966 56.1976C28.0777 56.627 28.3434 57.0155 28.6779 57.34C29.0124 57.6645 29.4088 57.9183 29.8435 58.0862C30.2782 58.2542 30.7423 58.3328 31.208 58.3175C32.1066 58.2879 32.9585 57.9108 33.5845 57.2655C34.2105 56.6203 34.5616 55.7572 34.5639 54.8582C34.5661 53.9592 34.2194 53.0944 33.5967 52.446C32.974 51.7976 32.1239 51.4161 31.2255 51.382ZM12.7135 53.6851C13.3297 53.6851 13.876 54.1921 13.876 54.8432C13.876 55.1504 13.7539 55.4449 13.5368 55.6621C13.3196 55.8793 13.025 56.0013 12.7179 56.0013C12.4107 56.0013 12.1162 55.8793 11.899 55.6621C11.6818 55.4449 11.5598 55.1504 11.5598 54.8432C11.5598 54.1921 12.0973 53.6851 12.7135 53.6851ZM21.9782 53.6851C22.5988 53.6851 23.1276 54.1921 23.1276 54.8432C23.1276 55.4944 22.6032 55.9969 21.9782 55.9969C21.3533 55.9969 20.8114 55.4987 20.8114 54.8432C20.8114 54.1877 21.3577 53.6851 21.9782 53.6851ZM31.2255 53.6851C31.833 53.6851 32.3749 54.1921 32.3749 54.8432C32.3749 55.4944 31.8504 55.9969 31.2255 55.9969C30.5962 55.9969 30.063 55.4987 30.063 54.8432C30.063 54.1877 30.6181 53.6851 31.2255 53.6851ZM38.1522 53.6851C36.6445 53.6851 36.6445 55.9969 38.1522 55.9969H48.5707C50.0784 55.9969 50.0784 53.6808 48.5707 53.6808L38.1522 53.6851ZM53.7668 53.6851C52.2547 53.6851 52.2547 55.9969 53.7668 55.9969H56.6599C58.1676 55.9969 58.1676 53.6808 56.6599 53.6808L53.7668 53.6851ZM10.4017 67.5648H16.1834V69.8766H10.406L10.4017 67.5648ZM57.8092 67.5648H63.591V69.8766H57.818L57.8092 67.5648Z" fill="white"/>
</svg>
