<svg width="74" height="74" viewBox="0 0 74 74" fill="none" xmlns="http://www.w3.org/2000/svg">
<path d="M51.6361 34.2451C51.7096 33.8247 51.7679 33.4017 51.8108 32.9771H39.615V34.479C39.615 34.8386 39.4722 35.1835 39.2179 35.4377C38.9636 35.692 38.6187 35.8349 38.2591 35.8349C37.8995 35.8349 37.5546 35.692 37.3004 35.4377C37.0461 35.1835 36.9032 34.8386 36.9032 34.479V31.6212C36.9032 31.2616 37.0461 30.9167 37.3004 30.6624C37.5546 30.4081 37.8995 30.2653 38.2591 30.2653H53.2525C53.4332 30.2653 53.612 30.3015 53.7785 30.3716C53.945 30.4417 54.0958 30.5444 54.2221 30.6736C54.3484 30.8027 54.4475 30.9559 54.5138 31.1239C54.5801 31.292 54.6122 31.4716 54.6081 31.6522C54.5844 32.6785 54.4839 33.7016 54.3072 34.7129C54.2451 35.067 54.0449 35.382 53.7506 35.5886C53.4563 35.7952 53.092 35.8765 52.7378 35.8145C52.3835 35.7525 52.0685 35.5523 51.8619 35.258C51.6553 34.9636 51.574 34.5993 51.6361 34.2451ZM31.0614 56.4371C28.8336 56.1517 26.6534 55.5716 24.5783 54.7121C21.4678 53.4236 18.6836 51.5631 16.3028 49.1823C13.9218 46.8012 12.0614 44.0166 10.7727 40.9063C9.49089 37.812 8.8409 34.5361 8.8409 31.1693C8.8409 27.8029 9.49089 24.5271 10.7726 21.4324C12.0612 18.3219 13.9217 15.5377 16.3027 13.1567C18.6833 10.7759 21.4677 8.91558 24.5781 7.62678C27.6728 6.34493 30.9487 5.69511 34.3151 5.69511C37.6815 5.69511 40.9576 6.3451 44.0523 7.62678C47.1631 8.91558 49.9473 10.7759 52.3279 13.1567C54.7091 15.5377 56.5696 18.3222 57.8579 21.4324C59.1397 24.5271 59.7895 27.8029 59.7895 31.1693C59.7895 32.2197 59.7246 33.2773 59.5965 34.3124C59.5746 34.4891 59.5878 34.6684 59.6352 34.84C59.6826 35.0116 59.7634 35.1722 59.8729 35.3127C59.9823 35.4531 60.1184 35.5705 60.2733 35.6584C60.4282 35.7462 60.5989 35.8027 60.7756 35.8245C60.9523 35.8464 61.1316 35.8333 61.3033 35.7859C61.4749 35.7385 61.6356 35.6578 61.776 35.5483C61.9164 35.4388 62.0339 35.3027 62.1217 35.1477C62.2095 34.9928 62.266 34.8221 62.2878 34.6454C62.43 33.4922 62.5013 32.3313 62.5013 31.1693C62.5013 27.445 61.782 23.82 60.3632 20.3946C58.938 16.9536 56.8797 13.8733 54.2455 11.2389C51.6117 8.60524 48.5314 6.54697 45.0899 5.12139C41.6645 3.70243 38.0393 2.98312 34.315 2.98312C30.5906 2.98312 26.9656 3.70243 23.5402 5.12139C20.0989 6.54697 17.0184 8.60524 14.3847 11.2391C11.7509 13.8731 9.69241 16.9534 8.267 20.3946C6.84804 23.82 6.12873 27.4452 6.12873 31.1693C6.12873 34.8939 6.84804 38.5189 8.267 41.9441C9.69241 45.3853 11.7509 48.4657 14.3847 51.0999C17.0187 53.7338 20.099 55.7922 23.5402 57.2176C25.8373 58.1688 28.2505 58.811 30.7165 59.1273C31.0732 59.1728 31.4335 59.0749 31.718 58.8549C32.0025 58.635 32.188 58.3111 32.2338 57.9544C32.2795 57.5977 32.1817 57.2375 31.9618 56.953C31.742 56.6685 31.4181 56.4829 31.0614 56.4371ZM61.2251 46.7883C62.9774 48.5408 63.9423 50.8648 63.9423 53.3323C63.9423 55.7997 62.9774 58.1237 61.2254 59.8764C59.4726 61.6289 57.1484 62.594 54.6808 62.594H50.0797V64.8665C50.0797 66.9578 48.3783 68.6593 46.2872 68.6593C44.1958 68.6593 42.4943 66.9578 42.4943 64.8665V47.8634C42.4943 45.772 44.1958 44.0705 46.2872 44.0705H54.6808C57.1484 44.0707 59.4726 45.0358 61.2251 46.7883ZM61.2307 53.3324C61.2307 51.5891 60.5478 49.946 59.3077 48.7057C58.0673 47.4656 56.424 46.7823 54.6808 46.7823H46.2872C46.0006 46.7827 45.7258 46.8967 45.5231 47.0993C45.3205 47.302 45.2065 47.5767 45.2062 47.8634V64.8665C45.2065 65.1531 45.3205 65.4279 45.5231 65.6305C45.7258 65.8332 46.0006 65.9472 46.2872 65.9475C46.5737 65.9472 46.8484 65.8331 47.051 65.6305C47.2536 65.4278 47.3676 65.1531 47.3678 64.8665V61.2381C47.3678 60.8785 47.5107 60.5336 47.765 60.2793C48.0193 60.025 48.3641 59.8822 48.7237 59.8822H54.6808C56.4241 59.8822 58.0673 59.1991 59.3078 57.9588C60.5476 56.7187 61.2307 55.0755 61.2307 53.3324ZM46.1278 2.60888C49.902 4.17259 53.2798 6.42951 56.1675 9.31761C59.0556 12.2055 61.3125 15.5833 62.8761 19.357C63.0138 19.6891 63.2778 19.953 63.61 20.0906C63.9422 20.2282 64.3155 20.2282 64.6478 20.0907C64.8123 20.0226 64.9618 19.9227 65.0877 19.7968C65.2136 19.6709 65.3135 19.5214 65.3816 19.3569C65.4497 19.1924 65.4848 19.0161 65.4848 18.838C65.4848 18.66 65.4497 18.4837 65.3815 18.3192C63.6812 14.2147 61.2263 10.5408 58.0851 7.4C54.9445 4.25903 51.2707 1.80398 47.1656 0.103494C46.8336 -0.0331578 46.4609 -0.0325187 46.1293 0.105271C45.7977 0.24306 45.5343 0.506748 45.3969 0.838486C45.2595 1.17022 45.2593 1.54292 45.3963 1.87482C45.5333 2.20672 45.7964 2.47071 46.1278 2.60888ZM22.5031 59.7301C18.7292 58.1669 15.3517 55.91 12.4636 53.0216C9.57512 50.1332 7.31803 46.7554 5.755 42.9821C5.68689 42.8175 5.58703 42.6681 5.46113 42.5421C5.33523 42.4162 5.18576 42.3164 5.02125 42.2482C4.85675 42.1801 4.68043 42.145 4.50237 42.145C4.32431 42.1451 4.14799 42.1802 3.9835 42.2483C3.81899 42.3165 3.6695 42.4163 3.54359 42.5422C3.41767 42.6681 3.31779 42.8176 3.24966 42.9821C3.18152 43.1466 3.14646 43.3229 3.14648 43.501C3.14651 43.679 3.18161 43.8554 3.24978 44.0198C4.94959 48.1239 7.40447 51.7977 10.5461 54.9392C13.6873 58.0807 17.3611 60.5356 21.4655 62.2355C21.6298 62.3038 21.806 62.339 21.9839 62.3391C22.2522 62.3391 22.5145 62.2596 22.7375 62.1105C22.9606 61.9615 23.1345 61.7497 23.2371 61.5018C23.3747 61.1695 23.3746 60.7962 23.2369 60.464C23.0993 60.1317 22.8353 59.8678 22.5031 59.7301ZM30.3713 30.2651C30.7309 30.2651 31.0758 30.408 31.3301 30.6623C31.5843 30.9165 31.7272 31.2614 31.7272 31.621V49.7052C31.7271 49.9071 31.682 50.1064 31.5951 50.2886C31.5082 50.4708 31.3818 50.6313 31.2249 50.7585C31.0681 50.8856 30.8848 50.976 30.6886 51.0233C30.4923 51.0706 30.2879 51.0734 30.0904 51.0316C28.4382 50.6812 26.8365 50.1249 25.3227 49.3759C23.3426 48.3966 21.5389 47.1001 19.9616 45.5227C18.056 43.6175 16.5721 41.4017 15.5513 38.937C14.5954 36.6303 14.0812 34.1795 14.0225 31.6526C14.0183 31.4719 14.0503 31.2922 14.1166 31.1241C14.1828 30.956 14.282 30.8028 14.4083 30.6736C14.5346 30.5443 14.6854 30.4416 14.852 30.3715C15.0185 30.3014 15.1974 30.2653 15.3781 30.2653L30.3713 30.2651ZM29.0154 32.9769H16.8194C16.9888 34.6694 17.4057 36.3277 18.0567 37.8991C18.9406 40.0333 20.2267 41.9531 21.8792 43.6053C23.2471 44.9734 24.8103 46.0971 26.5252 46.9452C27.3284 47.3426 28.1609 47.6778 29.0154 47.9478V32.9769ZM51.7466 25.0893H16.8838C16.6596 25.0892 16.4388 25.0336 16.2413 24.9273C16.0439 24.821 15.8758 24.6675 15.7523 24.4803C15.6287 24.2931 15.5535 24.0783 15.5334 23.8549C15.5132 23.6316 15.5488 23.4067 15.6369 23.2005C16.0214 22.3019 16.4701 21.4321 16.9796 20.598C17.8207 19.2239 18.8217 17.9543 19.9618 16.816C21.8668 14.9106 24.0826 13.4265 26.5476 12.4055C29.006 11.3871 31.6194 10.8708 34.3151 10.8708C37.0112 10.8708 39.6245 11.3871 42.0828 12.4055C44.5474 13.4264 46.7633 14.9104 48.669 16.816C49.8087 17.9544 50.8096 19.2239 51.6507 20.5978C52.1602 21.432 52.6089 22.3018 52.9932 23.2006C53.0813 23.4069 53.1169 23.6317 53.0968 23.8551C53.0766 24.0785 53.0014 24.2933 52.8778 24.4805C52.7543 24.6676 52.5863 24.8212 52.3889 24.9274C52.1915 25.0337 51.9708 25.0893 51.7466 25.0893ZM49.5541 22.3774C49.4831 22.2546 49.4105 22.1327 49.3368 22.0117C48.6075 20.8207 47.7398 19.7204 46.7517 18.7336C45.0989 17.0809 43.1791 15.7946 41.0452 14.9106C38.9176 14.0294 36.6534 13.5825 34.3153 13.5825C31.9774 13.5825 29.7133 14.0294 27.5856 14.9106C25.4513 15.7948 23.5315 17.0809 21.8794 18.7334C20.7904 19.8209 19.8482 21.0459 19.0765 22.3774H49.5541ZM57.7792 50.2338C58.6109 51.0657 59.0687 52.166 59.0687 53.3323C59.0687 54.4989 58.6107 55.5992 57.7794 56.4307C56.9474 57.2622 55.847 57.7202 54.6808 57.7202H48.7237C48.3641 57.7202 48.0193 57.5773 47.765 57.323C47.5107 57.0687 47.3678 56.7239 47.3678 56.3642V50.3003C47.3678 49.9407 47.5107 49.5958 47.765 49.3415C48.0193 49.0872 48.3641 48.9444 48.7237 48.9444H54.6808C55.8472 48.9444 56.9475 49.4023 57.7792 50.2338ZM56.357 53.3324C56.357 52.8902 56.1811 52.4707 55.8618 52.1513C55.5425 51.8321 55.1231 51.6562 54.6808 51.6562H50.0797V55.0083H54.6808C55.1228 55.0083 55.5423 54.8324 55.8619 54.5128C56.1813 54.1938 56.357 53.7745 56.357 53.3324ZM70.8529 43.9853V68.7449C70.8529 71.6425 68.4957 73.9999 65.5983 73.9999H40.8383C37.9407 73.9999 35.5832 71.6425 35.5832 68.7449V43.9853C35.5832 41.0877 37.9407 38.7303 40.8383 38.7303H65.5983C68.4957 38.7303 70.8529 41.0877 70.8529 43.9853ZM68.1411 43.9853C68.1411 42.5831 67.0004 41.4421 65.5983 41.4421H40.8383C39.4361 41.4421 38.2951 42.5829 38.2951 43.9853V68.7449C38.2951 70.1471 39.4359 71.2881 40.8383 71.2881H65.5983C67.0003 71.2881 68.1411 70.1473 68.1411 68.7449V43.9853Z" fill="white"/>
</svg>
