<svg width="74" height="75" viewBox="0 0 74 75" fill="none" xmlns="http://www.w3.org/2000/svg">
<path d="M38.5411 7.30566H16.4926C15.4853 7.30689 14.5196 7.70758 13.8073 8.41985C13.095 9.13211 12.6943 10.0978 12.6931 11.1051V16.403C12.694 17.4105 13.0946 18.3765 13.8069 19.089C14.5192 19.8016 15.4851 20.2024 16.4926 20.2036H38.5411C39.5486 20.2024 40.5144 19.8016 41.2267 19.089C41.939 18.3765 42.3396 17.4105 42.3405 16.403V11.1051C42.3393 10.0978 41.9386 9.13211 41.2263 8.41985C40.5141 7.70758 39.5484 7.30689 38.5411 7.30566ZM40.0072 16.4042C40.0072 17.2136 39.3493 17.8715 38.5411 17.8715H16.4926C16.1037 17.8709 15.731 17.716 15.4561 17.441C15.1813 17.1659 15.0267 16.793 15.0264 16.4042V11.1063C15.027 10.7176 15.1817 10.345 15.4565 10.0702C15.7313 9.79541 16.1039 9.64074 16.4926 9.64013H38.5411C38.9297 9.64074 39.3023 9.79541 39.5771 10.0702C39.8519 10.345 40.0066 10.7176 40.0072 11.1063V16.4042ZM34.3531 41.1399L31.2868 40.4623L30.6647 25.6519C30.6537 25.395 30.5582 25.1489 30.393 24.9518C30.2278 24.7547 30.0022 24.6176 29.7511 24.5619C29.5001 24.5061 29.2376 24.5348 29.0046 24.6435C28.7715 24.7521 28.5808 24.9347 28.4621 25.1628L21.2401 39.1314C21.1577 39.2902 21.1129 39.4657 21.1093 39.6445C21.1057 39.8233 21.1433 40.0005 21.2192 40.1625C21.2951 40.3244 21.4073 40.4666 21.5471 40.5782C21.6869 40.6897 21.8505 40.7676 22.0252 40.8057L25.0893 41.4833L25.7136 56.296C25.7252 56.5529 25.8212 56.7989 25.9868 56.9957C26.1524 57.1925 26.3783 57.3291 26.6296 57.3843C26.8808 57.4395 27.1432 57.4103 27.3761 57.3011C27.6089 57.1919 27.7992 57.0089 27.9175 56.7804L35.1371 42.8164C35.2192 42.6576 35.2638 42.482 35.2674 42.3032C35.271 42.1244 35.2335 41.9472 35.1577 41.7852C35.082 41.6232 34.97 41.4808 34.8305 41.3689C34.691 41.257 34.5277 41.1786 34.3531 41.1399ZM27.8573 51.8051L27.3856 40.4889C27.375 40.2315 27.2796 39.9849 27.1141 39.7874C26.9487 39.59 26.7226 39.4528 26.471 39.3974L24.0105 38.854L28.5129 30.137L28.9939 41.459C29.0171 41.9874 29.3917 42.4349 29.9085 42.5482L32.3656 43.0904L27.8573 51.8051Z" fill="white"/>
<path d="M67.2436 12.8407H67.2124V9.62628C67.2124 9.31686 67.0895 9.02012 66.8707 8.80133C66.6519 8.58254 66.3551 8.45962 66.0457 8.45962C65.7363 8.45962 65.4396 8.58254 65.2208 8.80133C65.002 9.02012 64.8791 9.31686 64.8791 9.62628V12.8407H63.4592V9.62628C63.4592 9.31686 63.3363 9.02012 63.1175 8.80133C62.8987 8.58254 62.602 8.45962 62.2925 8.45962C61.9831 8.45962 61.6864 8.58254 61.4676 8.80133C61.2488 9.02012 61.1259 9.31686 61.1259 9.62628V12.8407H61.0947C60.4495 12.8407 59.928 13.3621 59.928 14.0073V18.4392C59.93 19.3353 60.2348 20.2043 60.7929 20.9054C61.351 21.6064 62.1297 22.0983 63.0025 22.3011V57.1493C63.0025 60.2851 60.4518 62.8369 57.316 62.8369C54.1803 62.8369 51.6284 60.2851 51.6284 57.1493V42.1724C51.6292 40.5477 51.2854 38.9413 50.6197 37.4592C49.954 35.9772 48.9816 34.6531 47.7666 33.5745V7.66759C47.7647 6.07385 47.1308 4.54591 46.0039 3.41896C44.8769 2.29201 43.349 1.65809 41.7552 1.65625H13.2756C11.6817 1.65778 10.1534 2.29157 9.02624 3.41855C7.89905 4.54553 7.26496 6.07365 7.26312 7.66759V66.2143H5.72763C3.76316 66.2143 2.16406 67.8134 2.16406 69.7779C2.16406 71.7423 3.76316 73.3426 5.72763 73.3426H49.3032C51.2688 73.3426 52.8679 71.7435 52.8679 69.7779C52.8679 67.8122 51.2688 66.2143 49.3032 66.2143H47.7677V37.1022C48.7642 38.6054 49.2955 40.3689 49.2951 42.1724V57.1493C49.2951 61.572 52.8934 65.1702 57.316 65.1702C61.7387 65.1702 65.3358 61.572 65.3358 57.1493V22.3011C66.2086 22.0983 66.9872 21.6064 67.5453 20.9054C68.1034 20.2043 68.4082 19.3353 68.4103 18.4392V14.0073C68.4103 13.3621 67.8888 12.8407 67.2436 12.8407ZM50.5335 69.779C50.5335 70.4577 49.9819 71.0104 49.3021 71.0104H5.72878C5.41364 70.9937 5.11693 70.8567 4.89978 70.6277C4.68263 70.3987 4.56158 70.0952 4.56158 69.7796C4.56158 69.464 4.68263 69.1605 4.89978 68.9315C5.11693 68.7025 5.41364 68.5655 5.72878 68.5488H49.3032C49.9819 68.5488 50.5346 69.1003 50.5346 69.779H50.5335ZM9.59759 7.66759C9.59882 6.6926 9.98675 5.75791 10.6763 5.06859C11.3658 4.37928 12.3006 3.99164 13.2756 3.99072H41.7564C42.7313 3.99164 43.666 4.37932 44.3553 5.06866C45.0447 5.75801 45.4323 6.69271 45.4333 7.66759V66.0952H9.59759V7.66759ZM66.0769 18.4392C66.0769 19.3434 65.3416 20.0776 64.4385 20.0776H63.9009C63.4664 20.0773 63.0499 19.9046 62.7427 19.5974C62.4355 19.2902 62.2628 18.8737 62.2625 18.4392V15.174H66.0781L66.0769 18.4392Z" fill="white"/>
</svg>
