<svg width="74" height="74" viewBox="0 0 74 74" fill="none" xmlns="http://www.w3.org/2000/svg">
<g clip-path="url(#clip0_107_2146)">
<path d="M72.7658 58.5829H71.3955C74.8023 55.2676 74.8764 49.8182 71.5611 46.4114C71.0351 45.871 70.4404 45.402 69.7922 45.0164C71.073 44.2515 72.1338 43.1678 72.8711 41.871C73.6083 40.5741 73.997 39.1083 73.9991 37.6165C73.9929 32.8511 70.1312 28.9894 65.3659 28.9833H54.266V20.35C54.2659 20.1723 54.2274 19.9966 54.1531 19.8351C54.0788 19.6736 53.9705 19.5301 53.8356 19.4143C53.7006 19.2986 53.5423 19.2134 53.3713 19.1646C53.2004 19.1158 53.0209 19.1045 52.8452 19.1315L38.2329 21.3786V20.2267C41.102 19.6367 43.1624 17.1127 43.1661 14.1835C43.1661 8.80126 38.0886 3.66079 37.8715 3.44496C37.6402 3.21375 37.3266 3.08386 36.9995 3.08386C36.6725 3.08386 36.3589 3.21375 36.1276 3.44496C35.9105 3.66079 30.8329 8.80126 30.8329 14.1835C30.8366 17.1127 32.8971 19.6367 35.7662 20.2267V21.7597L20.7789 24.066C20.488 24.1108 20.2227 24.2581 20.0309 24.4813C19.8391 24.7045 19.7335 24.989 19.7331 25.2833V39.0237C18.8323 38.0522 17.7934 37.2185 16.6498 36.5497C16.4623 36.4414 16.2496 36.3844 16.0331 36.3844C15.8166 36.3844 15.604 36.4414 15.4165 36.5497C13.6193 37.5939 12.0849 39.0355 10.9305 40.764C9.77619 42.4925 9.03257 44.4622 8.75656 46.5223C7.90415 46.3475 7.03672 46.2562 6.16659 46.2497C5.62228 46.2521 5.07863 46.2876 4.53861 46.3558C4.32367 46.3817 4.11934 46.4637 3.94614 46.5936C3.77295 46.7235 3.637 46.8967 3.55196 47.0958C1.03876 52.991 2.99742 59.8407 8.2472 63.5162H0V65.9828H2.93776L5.06277 70.2341C5.16523 70.4391 5.32278 70.6115 5.51775 70.7319C5.71273 70.8524 5.9374 70.9162 6.16659 70.9161H53.0327C53.3598 70.9161 53.6735 70.7861 53.9048 70.5549C54.1361 70.3236 54.266 70.0099 54.266 69.6828V65.9828H62.137L64.262 70.2341C64.3645 70.4391 64.522 70.6115 64.717 70.7319C64.912 70.8524 65.1367 70.9162 65.3659 70.9161H70.2991C70.6262 70.9161 70.9399 70.7861 71.1712 70.5549C71.4025 70.3236 71.5324 70.0099 71.5324 69.6828V65.9828H72.7658C73.0929 65.9828 73.4066 65.8529 73.6378 65.6216C73.8691 65.3903 73.9991 65.0766 73.9991 64.7495V59.8162C73.9991 59.4891 73.8691 59.1754 73.6378 58.9441C73.4066 58.7128 73.0929 58.5829 72.7658 58.5829ZM71.5324 52.4163C71.5284 55.8203 68.7698 58.5789 65.3659 58.5829H43.1661C39.7605 58.5829 36.9995 55.822 36.9995 52.4163C36.9995 49.0107 39.7605 46.2497 43.1661 46.2497H59.1993C61.2427 46.2497 62.8992 47.9062 62.8992 49.9497C62.8992 51.9931 61.2427 53.6496 59.1993 53.6496H46.8661C46.539 53.6496 46.2253 53.5197 45.994 53.2884C45.7627 53.0571 45.6328 52.7434 45.6328 52.4163C45.6328 52.0892 45.7627 51.7755 45.994 51.5442C46.2253 51.3129 46.539 51.183 46.8661 51.183H55.4993V48.7164H46.8661C44.8226 48.7164 43.1661 50.3729 43.1661 52.4163C43.1661 54.4598 44.8226 56.1163 46.8661 56.1163H59.1993C62.6032 56.1123 65.3618 53.3536 65.3659 49.9497C65.3613 48.611 64.9167 47.3109 64.1005 46.2497H65.3659C68.7698 46.2537 71.5284 49.0124 71.5324 52.4163ZM61.6659 31.4499C63.7094 31.4499 65.3659 33.1064 65.3659 35.1499C65.3659 37.1933 63.7094 38.8498 61.6659 38.8498H49.3327C49.0056 38.8498 48.6919 38.7199 48.4606 38.4886C48.2293 38.2573 48.0994 37.9436 48.0994 37.6165C48.0994 37.2894 48.2293 36.9757 48.4606 36.7444C48.6919 36.5131 49.0056 36.3832 49.3327 36.3832H57.9659V33.9165H49.3327C47.2893 33.9165 45.6328 35.573 45.6328 37.6165C45.6328 39.66 47.2893 41.3165 49.3327 41.3165H61.6659C65.0699 41.3125 67.8285 38.5538 67.8325 35.1499C67.8313 33.8777 67.4329 32.6377 66.6929 31.6028C70.0142 32.3564 72.0959 35.6597 71.3424 38.981C70.7083 41.7762 68.2319 43.7658 65.3659 43.7831H48.0994C44.6937 43.7831 41.9328 41.0222 41.9328 37.6165C41.9328 34.2108 44.6937 31.4499 48.0994 31.4499H61.6659ZM33.2996 14.1835C33.2996 11.0299 35.6737 7.75047 36.9995 6.16689C38.3266 7.74924 40.6995 11.0225 40.6995 14.1835C40.6963 14.946 40.4577 15.6889 40.0161 16.3106C39.5746 16.9322 38.9518 17.4023 38.2329 17.6565V15.4168H35.7662V17.6565C35.0473 17.4023 34.4245 16.9322 33.983 16.3106C33.5414 15.6889 33.3027 14.946 33.2996 14.1835ZM16.0331 39.0694C17.394 39.9853 18.5358 41.1905 19.3769 42.5989C20.218 44.0073 20.7376 45.5841 20.8986 47.2166C19.0591 47.9513 17.4024 49.0789 16.0442 50.5207C14.6762 49.0845 13.0117 47.9638 11.1665 47.2364C11.3246 45.6003 11.843 44.0194 12.6844 42.6074C13.5258 41.1953 14.6694 39.9871 16.0331 39.0694ZM22.2198 49.3438C23.4022 48.9285 24.6464 48.7163 25.8997 48.7164C26.0933 48.7164 26.2956 48.7238 26.5065 48.7373C28.5384 54.5211 25.4968 60.8568 19.713 62.8887C18.5306 63.304 17.2864 63.5162 16.0331 63.5162C15.8395 63.5162 15.6372 63.5088 15.4263 63.4952C13.3945 57.7114 16.436 51.3757 22.2198 49.3438ZM4.93327 52.4163C4.9317 51.1633 5.14357 49.9192 5.5598 48.7373C5.76179 48.7239 5.96415 48.7169 6.16659 48.7164C7.74488 48.7116 9.30566 49.0471 10.7427 49.6998C12.1797 50.3525 13.4591 51.3072 14.494 52.499C13.4934 54.0368 12.8205 55.7642 12.517 57.5736C12.2136 59.3829 12.2862 61.2354 12.7303 63.0155C8.09164 61.5697 4.93235 57.2751 4.93327 52.4163ZM25.1375 68.4494H6.92878L5.69546 65.9828H26.3708L25.1375 68.4494ZM36.9995 68.4494H27.8952L29.1285 65.9828H32.0663V63.5162H23.8092C29.0648 59.8458 31.0284 52.994 28.5143 47.097C28.4293 46.8979 28.2933 46.7247 28.1201 46.5948C27.9469 46.4649 27.7426 46.3829 27.5277 46.357C26.1242 46.1766 24.7007 46.2266 23.3134 46.505C23.121 45.1333 22.7188 43.7992 22.1208 42.5498H22.1997V26.3415L51.7994 21.7881V28.9833H48.0994C43.3376 28.977 39.4722 32.8322 39.4659 37.594C39.4643 38.7638 39.7008 39.9216 40.161 40.997C40.6211 42.0725 41.2953 43.0431 42.1425 43.8497C37.4147 44.4075 34.0345 48.6923 34.5923 53.4201C34.8237 55.3817 35.7218 57.2043 37.1364 58.5829H35.7662C35.4391 58.5829 35.1254 58.7128 34.8941 58.9441C34.6628 59.1754 34.5329 59.4891 34.5329 59.8162V64.7495C34.5329 65.0766 34.6628 65.3903 34.8941 65.6216C35.1254 65.8529 35.4391 65.9828 35.7662 65.9828H36.9995V68.4494ZM42.4039 68.4494H39.4662V65.9828H43.6373L42.4039 68.4494ZM51.7994 68.4494H45.1616L46.395 65.9828H51.7994V68.4494ZM69.0658 68.4494H66.128L64.8947 65.9828H69.0658V68.4494ZM71.5324 63.5162H36.9995V61.0495H71.5324V63.5162Z" fill="white"/>
<path d="M24.666 28.9833H27.1327V38.8498H24.666V28.9833ZM24.666 41.3165H27.1327V43.7831H24.666V41.3165Z" fill="white"/>
</g>
<defs>
<clipPath id="clip0_107_2146">
<rect width="74" height="74" fill="white"/>
</clipPath>
</defs>
</svg>
