<svg width="34" height="35" viewBox="0 0 34 35" fill="none" xmlns="http://www.w3.org/2000/svg">
<path d="M7.4706 0.558838C6.94119 0.558838 6.41178 0.982367 6.41178 1.61766V2.67649H3.23531C1.54119 2.67649 0.0588379 4.05296 0.0588379 5.85296V31.2647C0.0588379 33.0647 1.43531 34.4412 3.23531 34.4412H30.7647C32.5647 34.4412 33.9412 33.0647 33.9412 31.2647V5.85296C33.9412 4.05296 32.5647 2.67649 30.7647 2.67649H27.5883V1.61766C27.5883 0.982367 27.1647 0.558838 26.5294 0.558838C25.8941 0.558838 25.4706 0.982367 25.4706 1.61766V2.67649H8.52943V1.61766C8.52943 0.982367 8.1059 0.558838 7.4706 0.558838ZM31.8235 31.2647C31.8235 31.9 31.4 32.3235 30.7647 32.3235H3.23531C2.60001 32.3235 2.17649 31.9 2.17649 31.2647V11.1471H31.8235V31.2647ZM25.4706 4.79413V5.85296C25.4706 6.48825 25.8941 6.91178 26.5294 6.91178C27.1647 6.91178 27.5883 6.48825 27.5883 5.85296V4.79413H30.7647C31.4 4.79413 31.8235 5.21766 31.8235 5.85296V9.02943H2.17649V5.85296C2.17649 5.21766 2.60001 4.79413 3.23531 4.79413H6.41178V5.85296C6.41178 6.48825 6.83531 6.91178 7.4706 6.91178C8.1059 6.91178 8.52943 6.48825 8.52943 5.85296V4.79413H25.4706Z" fill="#1A2142"/>
<path d="M6.51769 20.1471H10.753C11.3883 20.1471 11.8118 19.7236 11.8118 19.0883V14.853C11.8118 14.2177 11.3883 13.7942 10.753 13.7942H6.51769C5.88239 13.7942 5.45886 14.2177 5.45886 14.853V19.0883C5.45886 19.7236 5.88239 20.1471 6.51769 20.1471ZM7.57651 15.9118H9.69416V18.0295H7.57651V15.9118ZM14.9883 20.1471H19.2236C19.8589 20.1471 20.2824 19.7236 20.2824 19.0883V14.853C20.2824 14.2177 19.8589 13.7942 19.2236 13.7942H14.9883C14.353 13.7942 13.9295 14.2177 13.9295 14.853V19.0883C13.9295 19.7236 14.353 20.1471 14.9883 20.1471ZM16.0471 15.9118H18.1647V18.0295H16.0471V15.9118ZM23.4589 20.1471H27.6942C28.3295 20.1471 28.753 19.7236 28.753 19.0883V14.853C28.753 14.2177 28.3295 13.7942 27.6942 13.7942H23.4589C22.8236 13.7942 22.4 14.2177 22.4 14.853V19.0883C22.4 19.7236 22.8236 20.1471 23.4589 20.1471ZM24.5177 15.9118H26.6353V18.0295H24.5177V15.9118ZM6.51769 29.6765H10.753C11.3883 29.6765 11.8118 29.253 11.8118 28.6177V24.3824C11.8118 23.7471 11.3883 23.3236 10.753 23.3236H6.51769C5.88239 23.3236 5.45886 23.7471 5.45886 24.3824V28.6177C5.45886 29.253 5.88239 29.6765 6.51769 29.6765ZM7.57651 25.4412H9.69416V27.5589H7.57651V25.4412ZM14.9883 29.6765H19.2236C19.8589 29.6765 20.2824 29.253 20.2824 28.6177V24.3824C20.2824 23.7471 19.8589 23.3236 19.2236 23.3236H14.9883C14.353 23.3236 13.9295 23.7471 13.9295 24.3824V28.6177C13.9295 29.253 14.353 29.6765 14.9883 29.6765ZM16.0471 25.4412H18.1647V27.5589H16.0471V25.4412ZM23.4589 29.6765H27.6942C28.3295 29.6765 28.753 29.253 28.753 28.6177V24.3824C28.753 23.7471 28.3295 23.3236 27.6942 23.3236H23.4589C22.8236 23.3236 22.4 23.7471 22.4 24.3824V28.6177C22.4 29.253 22.8236 29.6765 23.4589 29.6765ZM24.5177 25.4412H26.6353V27.5589H24.5177V25.4412Z" fill="#1A2142"/>
</svg>
