<svg width="36" height="37" viewBox="0 0 36 37" fill="none" xmlns="http://www.w3.org/2000/svg">
<g clip-path="url(#clip0_107_1860)">
<path d="M17.9452 18.2229C20.3024 16.8737 21.9131 14.3615 21.9131 11.4565C21.9131 7.14118 18.4022 3.63037 14.0869 3.63037C9.77164 3.63037 6.26084 7.14118 6.26084 11.4565C6.26084 14.3615 7.87145 16.8737 10.2287 18.2229C4.33254 19.7709 0 24.7562 0 30.6648V32.5869C0 33.0189 0.350633 33.3695 0.782633 33.3695C1.21463 33.3695 1.56527 33.0189 1.56527 32.5869V30.6648C1.56519 24.3899 7.1828 19.2826 14.0869 19.2826C20.9911 19.2826 26.6087 24.3899 26.6087 30.6648V32.5869C26.6087 33.0189 26.9593 33.3695 27.3913 33.3695C27.8233 33.3695 28.174 33.0189 28.174 32.5869V30.6648C28.1739 24.7562 23.8413 19.7694 17.9452 18.2229ZM7.82611 11.4565C7.82611 8.00363 10.6341 5.19564 14.0869 5.19564C17.5398 5.19564 20.3478 8.00363 20.3478 11.4565C20.3478 14.9093 17.5398 17.7173 14.0869 17.7173C10.6341 17.7173 7.82611 14.9094 7.82611 11.4565Z" fill="#1A2142"/>
<path d="M28.4846 18.2431C30.1813 17.1209 31.3052 15.2019 31.3052 13.0216C31.3052 9.56874 28.4972 6.76074 25.0444 6.76074C24.6124 6.76074 24.2617 7.11138 24.2617 7.54337C24.2617 7.97537 24.6124 8.32601 25.0444 8.32601C27.6332 8.32601 29.74 10.4328 29.74 13.0217C29.74 15.6105 27.6332 17.7173 25.0444 17.7173C24.6124 17.7173 24.2617 18.0679 24.2617 18.4999C24.2617 18.9319 24.6123 19.2824 25.0443 19.2824C30.2236 19.2824 34.4356 23.1751 34.4356 27.9615V29.4563C34.4356 29.8883 34.7862 30.2389 35.2182 30.2389C35.6502 30.2389 36.0008 29.8883 36.0008 29.4563V27.9615C36.0008 23.4381 32.8454 19.5955 28.4846 18.2431Z" fill="#1A2142"/>
</g>
<defs>
<clipPath id="clip0_107_1860">
<rect width="36" height="36" fill="white" transform="translate(0 0.5)"/>
</clipPath>
</defs>
</svg>
